<?xml version="1.0" standalone="no"?>
<!DOCTYPE svg PUBLIC "-//W3C//DTD SVG 20010904//EN"
 "http://www.w3.org/TR/2001/REC-SVG-20010904/DTD/svg10.dtd">
<svg version="1.0" xmlns="http://www.w3.org/2000/svg"
 width="405.000000pt" height="421.000000pt" viewBox="0 0 405.000000 421.000000"
 preserveAspectRatio="xMidYMid meet">

<g transform="translate(0.000000,421.000000) scale(0.100000,-0.100000)"
fill="#000000" stroke="none">
<path d="M1860 3854 c-188 -109 -170 -85 -170 -229 l0 -124 -177 -97 c-98 -54
-194 -106 -213 -117 -97 -55 -500 -278 -607 -336 -67 -36 -122 -71 -123 -78 0
-7 9 -17 19 -23 11 -5 35 -24 53 -40 18 -17 43 -33 55 -36 13 -4 20 -11 16
-19 -3 -10 -11 -11 -26 -6 -30 12 -198 89 -219 101 -36 20 -57 12 -77 -32 -32
-73 -33 -80 -11 -103 21 -22 21 -28 20 -642 0 -610 0 -620 20 -646 l20 -26
-85 -46 -85 -47 22 -40 c13 -23 38 -49 57 -59 36 -19 27 -21 147 28 7 2 16
-14 22 -39 12 -46 35 -69 109 -107 54 -27 63 -45 63 -124 0 -53 4 -67 23 -84
31 -30 586 -331 865 -470 l132 -66 0 -68 0 -68 88 -48 c95 -53 137 -73 154
-73 8 0 9 132 4 470 l-8 470 32 0 32 0 -7 -457 c-4 -252 -12 -469 -16 -481
l-9 -24 32 20 c18 10 71 41 117 68 46 27 87 59 91 70 5 12 6 39 4 60 -3 22 -1
44 3 50 4 6 67 41 139 77 223 112 699 364 791 419 l88 53 3 77 3 77 37 22 c20
12 61 38 90 57 51 34 52 37 52 83 0 64 19 69 103 29 35 -16 68 -30 74 -30 21
0 93 103 81 115 -2 2 -39 22 -83 45 -44 24 -82 44 -84 46 -1 1 4 13 13 26 14
20 16 90 16 643 0 609 0 620 20 633 25 16 25 29 -2 97 -16 38 -29 55 -41 55
-10 0 -68 -23 -130 -51 -62 -28 -118 -53 -124 -56 -7 -3 -13 0 -13 5 0 13 70
72 86 72 6 0 19 9 29 20 16 18 17 22 4 34 -8 8 -115 69 -239 136 -124 67 -279
153 -345 190 -287 161 -506 280 -515 280 -4 0 -9 59 -12 130 -3 97 -7 134 -18
144 -13 12 -264 156 -273 156 -1 0 -54 -30 -117 -66z m92 -212 c-4 -1 -43 -22
-85 -46 -89 -51 -94 -44 -7 10 33 20 60 41 60 46 0 5 4 7 8 4 4 -3 7 28 6 67
-2 40 3 97 9 127 12 54 12 53 15 -75 1 -71 -1 -131 -6 -133z m60 167 c-1 -75
14 -149 30 -149 5 0 6 5 3 10 -3 6 -3 10 2 10 4 0 14 -14 22 -30 7 -17 33 -46
58 -65 25 -19 42 -35 37 -35 -5 0 -27 14 -48 30 -22 17 -44 30 -49 30 -5 0
-22 9 -37 20 -29 20 -29 22 -32 140 -2 72 1 119 6 117 6 -2 9 -37 8 -78z m-72
67 c0 -3 -4 -8 -10 -11 -5 -3 -10 -1 -10 4 0 6 5 11 10 11 6 0 10 -2 10 -4z
m118 -462 c5 -199 3 -205 -57 -234 -39 -18 -52 -20 -70 -11 -11 7 -21 14 -21
17 0 2 9 0 21 -6 11 -7 23 -9 26 -6 4 3 -11 13 -31 21 l-37 16 1 169 c2 183 1
181 64 214 27 14 32 13 65 -6 l36 -21 3 -153z m189 119 c-2 -16 -4 -3 -4 27 0
30 2 43 4 28 2 -16 2 -40 0 -55z m-492 38 c3 -5 1 -12 -5 -16 -5 -3 -10 1 -10
9 0 18 6 21 15 7z m12 -284 c-1 -45 -3 -5 -3 88 0 94 2 130 3 82 2 -48 2 -125
0 -170z m-20 108 c-2 -74 -6 -138 -10 -142 -9 -8 -9 223 -1 255 4 12 8 22 10
22 3 0 3 -61 1 -135z m172 -238 l65 -34 58 35 58 34 0 167 c0 98 4 160 9 152
5 -7 14 -10 20 -7 8 5 11 -43 11 -173 l0 -180 -76 -42 -76 -42 -87 46 -86 45
-2 178 c-2 160 -1 177 12 160 15 -19 15 -19 17 5 1 13 5 -51 8 -143 l5 -168
64 -33z m291 213 c6 0 10 -18 10 -40 0 -22 -4 -40 -10 -40 -5 0 -10 -20 -10
-45 0 -25 -4 -45 -10 -45 -6 0 -10 58 -10 153 0 160 13 226 18 93 2 -42 7 -76
12 -76z m-534 101 c-7 -11 -220 -135 -501 -291 -121 -67 -290 -162 -376 -211
-85 -49 -162 -89 -170 -89 -24 1 26 36 129 91 53 29 142 78 197 109 55 32 168
95 250 141 83 46 220 122 305 170 153 86 176 97 166 80z m941 -177 c186 -102
352 -194 368 -204 17 -10 71 -39 120 -65 50 -27 106 -58 125 -70 19 -12 43
-24 53 -28 9 -3 17 -11 17 -18 0 -16 -11 -11 -235 113 -110 61 -290 160 -400
221 -199 109 -395 225 -395 233 0 9 21 -2 347 -182z m-380 34 c-2 -24 -4 -7
-4 37 0 44 2 63 4 43 2 -21 2 -57 0 -80z m7 -73 c3 -8 1 -15 -4 -15 -6 0 -10
7 -10 15 0 8 2 15 4 15 2 0 6 -7 10 -15z m-567 -38 c-3 -8 -97 -65 -209 -127
-112 -62 -275 -155 -364 -206 -157 -91 -184 -104 -184 -85 0 14 161 108 490
286 63 34 149 83 190 107 41 25 77 44 79 42 2 -2 1 -9 -2 -17z m38 13 c3 -5 2
-10 -4 -10 -5 0 -13 5 -16 10 -3 6 -2 10 4 10 5 0 13 -4 16 -10z m761 -111
c174 -94 483 -270 562 -319 23 -15 29 -30 12 -30 -5 0 -74 38 -152 83 -79 46
-219 126 -313 176 -227 124 -325 182 -325 192 0 5 2 9 5 9 3 0 98 -50 211
-111z m-232 62 c3 -5 75 -48 158 -96 359 -205 371 -229 23 -42 -244 130 -242
129 -220 138 27 10 33 10 39 0z m-511 -16 c1 -5 -20 -21 -48 -34 -27 -14 -99
-53 -160 -87 -139 -78 -236 -127 -241 -121 -7 6 29 28 236 149 176 102 208
116 213 93z m58 -89 c-9 -11 -7 -12 12 -9 21 4 89 -24 135 -55 14 -9 -26 -33
-478 -282 l-185 -102 -73 36 c-41 21 -70 41 -67 47 4 5 16 7 28 4 15 -4 18 -3
9 3 -12 8 131 100 328 210 30 17 107 60 169 96 115 66 144 78 122 52z m446
-32 c38 -20 124 -68 193 -107 69 -38 175 -97 235 -130 162 -88 158 -82 75
-133 l-69 -42 -168 92 c-360 196 -493 271 -493 277 0 3 17 11 38 17 20 7 55
23 77 36 22 13 41 25 42 25 1 1 33 -15 70 -35z m-342 -118 c-33 -18 -116 -63
-185 -100 -69 -36 -165 -89 -215 -117 -121 -69 -186 -102 -191 -97 -3 4 33 25
181 103 57 30 153 83 350 193 50 27 97 50 105 51 8 0 -12 -14 -45 -33z m222
-19 c21 -13 112 -63 203 -112 264 -142 351 -194 322 -195 -7 0 -20 7 -29 15
-9 9 -24 13 -37 10 -11 -2 -15 -2 -8 1 8 4 -9 20 -44 42 -33 21 -59 31 -61 25
-3 -7 -21 -1 -49 14 -25 14 -41 29 -38 35 4 7 2 8 -4 4 -16 -10 -54 12 -46 26
5 7 1 9 -9 5 -10 -3 -17 -2 -17 4 0 6 -5 7 -10 4 -6 -4 -9 -2 -8 5 2 6 -52 42
-120 79 -68 38 -127 72 -130 76 -12 12 47 -14 85 -38z m1239 -23 c19 -15 19
-15 -1 -6 -11 5 -27 12 -35 15 -13 5 -13 6 1 6 8 1 24 -6 35 -15z m-1177 -110
c224 -116 381 -207 406 -234 10 -11 15 -20 11 -20 -3 0 -143 70 -309 157 -166
86 -307 156 -312 156 -6 0 -28 -11 -50 -25 -22 -13 -134 -73 -250 -132 -115
-60 -221 -116 -235 -125 -14 -9 -37 -22 -52 -29 -23 -10 -28 -9 -28 3 0 9 6
12 17 8 10 -4 14 -2 10 4 -7 11 287 181 553 320 14 7 31 13 39 13 8 0 98 -43
200 -96z m771 -73 c0 -15 -253 -144 -281 -144 -17 0 -25 -4 -18 -7 7 -5 8 -10
1 -14 -5 -3 -13 2 -17 11 -3 10 -3 19 2 21 4 2 69 36 143 76 118 63 170 80
170 57z m-1809 -52 c141 -76 165 -93 172 -119 5 -18 -4 -15 -71 21 -173 94
-251 142 -246 150 10 17 31 9 145 -52z m1619 6 c-30 -19 -59 -35 -65 -35 -5 0
15 16 45 35 30 19 59 35 65 35 5 0 -15 -16 -45 -35z m-627 -89 c62 -35 148
-82 192 -104 44 -22 89 -47 100 -56 18 -14 18 -15 2 -16 -25 0 -118 49 -319
170 -21 12 -38 20 -38 17 0 -3 64 -44 143 -91 145 -87 222 -139 132 -90 -27
15 -63 35 -80 44 -16 10 -61 35 -100 55 -88 47 -145 85 -145 97 0 5 10 4 23
-3 16 -8 14 -4 -8 15 -48 40 -22 31 98 -38z m-193 50 c0 -4 -116 -73 -220
-130 -30 -16 -84 -47 -119 -67 -35 -20 -71 -35 -78 -32 -16 6 39 40 221 134
65 33 133 70 150 80 30 18 46 23 46 15z m-950 -15 c0 -5 30 -25 68 -44 118
-62 238 -137 220 -137 -10 0 -18 -4 -18 -10 0 -18 -20 -11 -21 8 0 9 -3 12 -5
7 -4 -10 -304 132 -314 148 -5 9 37 36 58 37 6 0 12 -4 12 -9z m2021 -11 c28
-15 24 -24 -17 -39 -20 -7 -78 -33 -130 -57 -51 -24 -96 -44 -99 -44 -3 0 -17
-8 -32 -17 -38 -25 -65 -27 -61 -6 3 12 12 17 26 16 13 -2 22 3 22 11 0 7 44
37 98 66 53 29 106 59 117 66 25 16 50 17 76 4z m-2371 -519 c0 -446 -2 -500
-16 -505 -9 -3 -18 -6 -20 -6 -2 0 -4 232 -4 515 0 513 0 516 20 505 20 -10
20 -21 20 -509z m1294 498 c-3 -5 -58 -36 -122 -69 -64 -33 -145 -75 -180 -95
-35 -19 -69 -35 -75 -35 -15 0 12 18 93 63 36 19 106 58 155 86 50 28 96 51
103 51 6 0 12 5 12 11 0 5 5 7 10 4 6 -4 8 -11 4 -16z m1406 -477 c0 -428 -2
-489 -15 -489 -13 0 -15 61 -15 482 0 265 3 485 7 488 3 4 10 7 15 7 4 0 8
-220 8 -488z m-2640 -7 c0 -303 -3 -465 -10 -465 -7 0 -10 162 -10 465 0 303
3 465 10 465 7 0 10 -162 10 -465z m1248 440 c0 -21 -19 -35 -139 -101 -143
-78 -179 -93 -179 -77 0 5 67 45 149 89 87 46 152 86 154 97 7 25 15 21 15 -8z
m257 -75 c6 -4 43 -24 83 -45 40 -21 71 -40 68 -42 -5 -5 -253 122 -306 156
-13 9 -21 11 -17 4 4 -6 70 -46 147 -88 122 -68 160 -95 132 -95 -15 0 -296
158 -300 169 -2 6 -1 18 2 26 4 11 25 3 93 -32 48 -25 93 -49 98 -53z m1057
-95 c0 -487 -4 -728 -12 -710 -13 31 -12 887 1 883 8 -3 11 -58 11 -173z
m-1372 161 c0 -8 -92 -58 -97 -53 -3 3 17 17 44 31 53 28 53 28 53 22z m-113
-62 c-12 -13 -138 -83 -159 -89 -13 -4 15 16 62 43 75 45 115 63 97 46z m-836
-349 c0 -300 -2 -320 -18 -320 -17 0 -18 21 -21 334 l-2 334 20 -14 c20 -14
21 -22 21 -334z m2095 299 c-3 -9 -6 -146 -6 -305 0 -186 -4 -289 -10 -289 -6
0 -10 108 -10 305 0 273 2 305 16 305 11 0 14 -5 10 -16z m-1818 -51 c10 -4
12 -65 10 -277 l-3 -271 -90 -47 c-98 -53 -95 -51 -95 -40 0 5 24 19 53 32 67
30 119 61 113 67 -2 2 -18 -3 -35 -11 -17 -9 -42 -21 -56 -26 l-25 -10 0 320
0 320 58 -26 c31 -14 63 -28 70 -31z m1642 -263 l0 -310 -27 6 c-16 4 -45 15
-65 26 l-38 18 0 259 0 258 58 26 c31 14 60 26 65 26 4 1 7 -139 7 -309z
m-1380 10 c0 -153 -4 -240 -10 -240 -6 0 -10 87 -10 240 0 153 4 240 10 240 6
0 10 -87 10 -240z m-201 173 c0 -34 -3 -50 -7 -40 -7 17 -4 97 4 97 2 0 4 -26
3 -57z m821 23 c42 -21 73 -44 87 -67 12 -19 28 -41 36 -49 7 -8 14 -44 16
-80 2 -55 -1 -68 -18 -84 -11 -10 -17 -24 -14 -32 3 -8 1 -14 -5 -14 -5 0 -12
-9 -15 -21 -3 -12 -10 -18 -16 -14 -6 3 -11 0 -11 -8 0 -27 -83 -67 -139 -67
-28 0 -51 -4 -51 -9 0 -6 -11 -7 -27 -1 -16 4 -40 11 -54 14 -37 8 -129 84
-129 106 0 10 -4 21 -9 24 -10 6 -46 127 -42 141 2 6 5 19 7 30 2 11 10 25 17
30 8 6 19 20 26 33 6 12 18 22 27 22 8 0 24 9 36 20 73 67 176 77 278 26z
m380 -218 c0 -161 -4 -238 -10 -228 -13 20 -13 470 0 470 6 0 10 -87 10 -242z
m-1173 99 c-2 -23 -3 -1 -3 48 0 50 1 68 3 42 2 -26 2 -67 0 -90z m200 -189
c-1 -62 -3 -14 -3 107 0 121 2 172 3 113 2 -59 2 -158 0 -220z m1195 158 c1
-86 -2 -159 -5 -163 -4 -3 -7 15 -7 41 0 43 -2 47 -20 41 -13 -4 -20 -2 -20 7
0 8 9 24 20 36 17 18 20 35 20 113 0 51 2 90 5 87 3 -3 6 -76 7 -162z m765 82
c-2 -18 -4 -6 -4 27 0 33 2 48 4 33 2 -15 2 -42 0 -60z m-1919 -146 c0 -100
-4 -185 -9 -188 -5 -3 -9 85 -8 203 0 130 4 200 9 188 5 -11 9 -102 8 -203z
m861 9 c-1 -110 -6 -198 -11 -195 -10 6 -11 378 -1 387 3 4 8 7 10 7 3 0 3
-90 2 -199z m28 -118 c-1 -60 -3 -11 -3 107 0 118 2 167 3 108 2 -60 2 -156 0
-215z m-1940 190 c-2 -21 -4 -6 -4 32 0 39 2 55 4 38 2 -18 2 -50 0 -70z
m2183 25 c0 -18 -2 -20 -9 -8 -6 8 -7 18 -5 22 9 14 14 9 14 -14z m-1394 -23
c1 -8 -3 -15 -9 -15 -7 0 -1 -9 13 -20 14 -10 26 -28 26 -39 1 -25 1 -25 -36
-6 -18 9 -27 21 -25 32 12 62 17 75 22 69 4 -4 8 -13 9 -21z m1386 -27 c-7 -7
-12 -8 -12 -2 0 14 12 26 19 19 2 -3 -1 -11 -7 -17z m-2175 -75 c-3 -10 -5 -2
-5 17 0 19 2 27 5 18 2 -10 2 -26 0 -35z m793 3 c0 -2 -3 -11 -6 -20 -9 -23
-24 -20 -24 4 0 11 7 20 15 20 8 0 15 -2 15 -4z m17 -68 c-2 -13 -4 -3 -4 22
0 25 2 35 4 23 2 -13 2 -33 0 -45z m1390 -60 c-3 -7 -5 -2 -5 12 0 14 2 19 5
13 2 -7 2 -19 0 -25z m-1144 -139 c34 -18 116 -63 181 -101 65 -38 141 -80
167 -94 27 -13 49 -29 49 -35 0 -6 -44 13 -97 42 -131 70 -356 199 -367 210
-18 17 4 9 67 -22z m891 13 c-34 -29 -424 -235 -431 -228 -8 8 -17 3 137 84
74 39 171 91 215 115 84 47 114 58 79 29z m-119 -4 c-84 -45 -175 -101 -172
-105 3 -2 22 6 43 19 21 12 35 17 31 11 -7 -11 -94 -63 -105 -63 -3 0 3 7 14
15 32 24 2 17 -60 -15 -67 -35 -86 -34 -29 1 58 35 277 148 288 148 6 0 1 -5
-10 -11z m492 -35 c92 -45 87 -42 82 -47 -2 -2 -23 4 -47 15 -23 11 -48 17
-54 13 -6 -4 -8 -3 -4 4 4 6 -8 16 -29 23 -19 7 -35 17 -35 21 0 12 4 11 87
-29z m-1047 -45 c0 -5 6 -8 14 -8 8 0 21 -6 28 -13 7 -7 21 -16 31 -20 10 -4
15 -11 12 -17 -4 -6 1 -7 11 -3 12 4 15 3 10 -5 -5 -8 1 -12 18 -12 16 0 26
-6 26 -15 0 -8 5 -15 10 -15 6 0 10 -5 10 -10 0 -7 -7 -7 -20 0 -11 6 -17 16
-14 22 5 7 2 8 -5 4 -11 -7 -255 124 -246 132 2 2 24 -8 50 -23 25 -15 48 -25
51 -22 3 2 -16 17 -41 31 -61 36 -57 44 5 9 27 -15 50 -31 50 -35z m440 57 c0
-3 -26 -18 -57 -35 -32 -16 -77 -41 -100 -55 -24 -13 -43 -21 -43 -17 0 7 178
110 193 111 4 1 7 -1 7 -4z m804 -14 c22 -24 18 -30 -29 -55 -27 -15 -41 -17
-53 -9 -29 18 -24 38 15 61 47 26 46 26 67 3z m-1987 -17 c11 -10 9 -15 -9
-28 -12 -9 -30 -16 -40 -16 -26 0 -68 22 -68 35 0 32 87 39 117 9z m913 -83
c0 -10 -146 65 -155 79 -3 6 30 -8 74 -30 45 -22 81 -44 81 -49z m-620 45 c0
-3 -4 -8 -10 -11 -5 -3 -10 -1 -10 4 0 6 5 11 10 11 6 0 10 -2 10 -4z m-33
-24 c1 -13 -28 -33 -108 -74 -97 -50 -139 -62 -139 -39 0 5 233 131 243 131 2
0 3 -8 4 -18z m1333 13 c0 -5 -54 -40 -120 -77 -25 -14 -88 -50 -140 -80 -53
-30 -150 -84 -215 -118 -66 -35 -125 -67 -131 -71 -38 -30 -130 11 -454 201
-69 40 -146 85 -172 99 -46 25 -67 48 -30 33 10 -4 147 -76 306 -161 l288
-154 41 13 c23 6 56 20 72 30 17 9 116 61 220 115 105 54 222 116 260 137 75
41 75 40 75 33z m164 -50 c44 -25 82 -45 85 -45 3 0 20 -12 36 -26 l30 -25
-34 5 c-39 7 -244 116 -218 116 10 0 15 5 12 10 -12 19 10 10 89 -35z m-1841
-25 c-5 -20 -103 -90 -182 -130 -34 -17 -43 -19 -38 -7 3 9 1 18 -6 20 -17 6
-15 7 103 75 115 67 131 72 123 42z m682 -158 c83 -46 154 -87 159 -92 9 -9
-9 -229 -19 -238 -2 -3 -24 9 -49 24 -24 16 -154 99 -288 185 -134 86 -254
162 -267 169 -23 12 -22 13 45 51 38 22 80 46 94 53 27 16 15 22 325 -152z
m1093 119 c34 -17 68 -31 74 -31 21 0 -9 -22 -311 -224 -161 -109 -297 -194
-301 -189 -5 4 -14 55 -20 113 -6 57 -13 107 -16 111 -2 4 58 40 134 80 75 40
181 99 236 130 109 63 96 63 204 10z m375 18 c76 -39 150 -89 143 -97 -3 -3 1
-14 11 -24 9 -10 14 -18 11 -18 -8 0 -191 101 -220 122 -28 19 -38 48 -18 48
6 0 39 -14 73 -31z m-138 -168 c-28 -28 -748 -521 -760 -521 -13 0 -2 29 18
47 22 21 165 118 307 208 143 92 219 140 267 169 26 16 68 46 93 66 25 21 52
40 60 43 29 11 34 7 15 -12z m-1879 -43 c38 -22 71 -44 74 -48 3 -4 22 -15 42
-25 21 -9 35 -22 31 -28 -3 -5 -1 -7 4 -4 16 10 380 -222 405 -258 4 -5 8 -6
8 -1 0 6 6 2 13 -8 7 -9 17 -16 23 -14 6 2 26 -5 45 -16 28 -14 36 -25 36 -46
l0 -28 -81 53 c-45 29 -121 79 -171 111 -49 32 -171 112 -270 178 -99 66 -202
132 -230 148 -43 23 -46 28 -24 28 14 0 56 -19 95 -42z m864 12 c8 -5 11 -10
5 -10 -5 0 -17 5 -25 10 -8 5 -10 10 -5 10 6 0 17 -5 25 -10z m-1065 -13 c-46
-31 -99 -59 -88 -47 14 16 84 58 98 59 5 1 1 -5 -10 -12z m2702 -53 c86 -47
94 -63 30 -64 -33 0 -141 66 -132 80 4 6 12 7 18 3 7 -4 6 0 -2 10 -21 26 -6
21 86 -29z m-3102 10 c-19 -37 -112 -89 -131 -73 -8 6 -14 15 -14 19 0 9 130
79 147 80 9 0 8 -7 -2 -26z m1665 -138 c8 -87 11 -189 7 -257 -4 -63 -8 -148
-8 -189 l-2 -75 -11 90 -12 90 -11 -95 c-7 -64 -11 -80 -12 -50 -3 83 -21 21
-21 -72 0 -49 -4 -88 -9 -88 -6 0 -10 148 -11 367 l-1 368 33 27 c18 15 36 28
39 28 3 0 12 -65 19 -144z m-235 91 c6 -8 8 -152 5 -412 -3 -220 -6 -379 -8
-352 -2 50 -17 62 -31 25 -12 -33 -21 75 -23 296 -1 105 -4 151 -5 103 -3 -66
-8 -89 -18 -94 -9 -3 -15 -18 -15 -35 0 -17 -4 -27 -10 -23 -20 12 -7 419 16
511 6 21 7 22 42 7 21 -8 42 -20 47 -26z m1352 -1 c-28 -17 -453 -294 -622
-406 -257 -169 -420 -268 -424 -258 -1 5 -1 10 0 12 2 1 87 56 189 121 102 65
221 142 265 170 112 73 468 301 540 345 33 21 62 35 65 33 3 -3 -3 -10 -13
-17z m-2397 -93 c69 -44 136 -86 150 -93 14 -7 101 -63 195 -123 93 -60 203
-130 245 -155 135 -82 314 -202 302 -202 -27 0 -471 278 -1024 640 -21 14 -38
29 -38 34 0 4 10 2 23 -6 12 -8 78 -51 147 -95z m-264 10 c-6 -6 -36 9 -36 18
0 5 9 4 20 -3 10 -7 18 -14 16 -15z m1371 -10 c-3 -10 -5 -4 -5 12 0 17 2 24
5 18 2 -7 2 -21 0 -30z m1388 11 c-11 -9 -40 -27 -65 -41 -25 -14 -88 -52
-140 -83 -52 -31 -135 -79 -185 -105 -49 -27 -108 -60 -130 -75 -22 -15 -89
-53 -150 -85 -60 -32 -147 -80 -193 -106 -104 -61 -191 -105 -175 -88 7 7 33
24 57 38 24 14 93 56 153 92 59 36 160 94 223 129 151 83 347 193 490 273 111
63 156 83 115 51z m-2725 -8 c0 -3 -4 -8 -10 -11 -5 -3 -10 -1 -10 4 0 6 5 11
10 11 6 0 10 -2 10 -4z m102 -60 c35 -18 92 -50 128 -70 36 -20 126 -68 200
-106 74 -38 153 -80 175 -93 22 -12 84 -47 137 -76 54 -29 101 -58 105 -65 5
-6 63 -44 131 -85 68 -40 122 -75 119 -77 -2 -3 -51 22 -108 54 -57 33 -160
90 -229 127 -260 141 -346 189 -375 210 -16 12 -48 31 -70 42 -156 79 -312
173 -287 173 6 0 40 -15 74 -34z m464 -362 c18 -14 18 -14 -6 -3 -31 14 -36
19 -24 19 6 0 19 -7 30 -16z m44 -179 c0 -3 -27 8 -60 25 -33 17 -60 33 -60
35 0 3 27 -8 60 -25 33 -17 60 -33 60 -35z m1055 5 c-3 -5 -12 -10 -18 -10 -7
0 -6 4 3 10 19 12 23 12 15 0z m-985 -46 c0 -2 -9 0 -20 6 -11 6 -20 13 -20
16 0 2 9 0 20 -6 11 -6 20 -13 20 -16z"/>
<path d="M2201 3314 c0 -11 3 -14 6 -6 3 7 2 16 -1 19 -3 4 -6 -2 -5 -13z"/>
<path d="M2330 2766 c0 -2 7 -7 16 -10 8 -3 12 -2 9 4 -6 10 -25 14 -25 6z"/>
<path d="M2410 2726 c0 -3 9 -10 20 -16 11 -6 20 -8 20 -6 0 3 -9 10 -20 16
-11 6 -20 8 -20 6z"/>
<path d="M2675 2090 c-3 -5 -1 -10 4 -10 6 0 11 5 11 10 0 6 -2 10 -4 10 -3 0
-8 -4 -11 -10z"/>
<path d="M1310 1610 c0 -5 5 -10 10 -10 6 0 19 -9 30 -20 11 -11 25 -20 30
-20 6 0 -5 14 -23 30 -37 32 -47 36 -47 20z"/>
<path d="M1445 1520 c39 -26 55 -26 22 0 -14 11 -31 20 -39 20 -7 0 1 -9 17
-20z"/>
<path d="M1320 1446 c0 -3 9 -10 20 -16 11 -6 20 -8 20 -6 0 3 -9 10 -20 16
-11 6 -20 8 -20 6z"/>
<path d="M1684 1001 c4 -6 16 -16 28 -22 15 -8 18 -8 14 0 -4 6 -16 16 -28 22
-15 8 -18 8 -14 0z"/>
</g>
</svg>
